<?xml version="1.0" standalone="no"?>
<!DOCTYPE svg PUBLIC "-//W3C//DTD SVG 20010904//EN"
 "http://www.w3.org/TR/2001/REC-SVG-20010904/DTD/svg10.dtd">
<svg version="1.0" xmlns="http://www.w3.org/2000/svg"
 width="470.000000pt" height="531.000000pt" viewBox="0 0 470.000000 531.000000"
 preserveAspectRatio="xMidYMid meet">

<g transform="translate(0.000000,531.000000) scale(0.100000,-0.100000)"
fill="#003a70" stroke="none">
<path d="M2251 5065 c-72 -20 -162 -86 -249 -183 l-72 -80 -54 2 c-45 1 -60
-4 -104 -34 -60 -40 -91 -90 -99 -160 -6 -53 13 -120 48 -171 18 -25 18 -28
-1 -80 -10 -30 -27 -85 -39 -124 -49 -169 -73 -251 -77 -263 -5 -16 -57 -10
-134 15 -25 8 -94 25 -155 38 -60 13 -141 30 -180 39 -97 22 -438 33 -528 17
-253 -44 -396 -185 -403 -397 -2 -69 2 -95 30 -175 84 -247 247 -476 546 -766
l84 -83 -136 -137 c-226 -228 -347 -384 -451 -583 -24 -47 -67 -175 -75 -225
-9 -50 -8 -142 0 -176 9 -38 64 -140 92 -171 61 -68 227 -129 387 -143 71 -7
77 -9 94 -38 26 -44 62 -73 123 -98 49 -20 58 -21 107 -9 69 17 113 53 149
123 l28 56 71 16 c40 8 95 22 122 30 127 35 219 55 226 48 4 -4 19 -51 33
-103 79 -306 148 -483 262 -676 114 -194 225 -294 365 -330 211 -54 399 67
575 371 16 28 31 57 34 65 3 8 24 53 47 100 54 113 120 312 158 475 9 39 19
78 22 88 6 22 14 21 138 -13 83 -22 235 -57 340 -79 88 -18 358 -34 450 -26
98 7 243 47 310 86 83 47 151 145 175 256 16 71 -18 244 -70 355 -11 23 -11
31 1 45 30 37 42 74 42 131 -1 67 -17 103 -66 150 -47 45 -93 60 -164 52 l-58
-7 -39 46 c-22 25 -101 108 -175 184 l-136 138 65 63 c271 257 483 546 556
758 35 101 38 122 36 213 -2 70 -6 88 -40 154 -27 55 -52 87 -89 117 -53 43
-181 98 -267 115 -100 19 -462 5 -561 -23 -22 -6 -89 -21 -150 -34 -60 -13
-141 -32 -180 -43 -115 -33 -105 -40 -149 117 -58 206 -104 341 -135 397 -15
28 -33 66 -41 85 -7 19 -39 82 -69 139 -72 134 -200 268 -304 319 -83 41 -181
51 -266 27z m239 -134 c56 -36 163 -142 190 -189 9 -15 27 -45 41 -67 30 -47
101 -187 116 -230 6 -16 23 -64 38 -105 15 -41 31 -84 35 -95 11 -23 65 -233
74 -286 l7 -37 -65 -30 c-35 -16 -81 -36 -102 -42 -22 -7 -57 -21 -79 -31 -22
-10 -80 -34 -130 -54 -49 -21 -128 -53 -176 -72 l-85 -35 -200 82 c-109 45
-228 93 -264 106 -36 14 -83 34 -106 44 -22 11 -48 20 -57 20 -21 0 -22 28 -3
95 41 141 67 227 91 296 l26 76 55 7 c52 6 108 28 145 58 55 44 68 180 24 257
-14 23 -25 50 -25 60 0 15 109 141 123 141 3 0 32 16 64 36 55 33 62 35 133
32 66 -3 82 -7 130 -37z m-1500 -952 c25 -6 79 -17 120 -24 109 -20 339 -71
405 -89 31 -9 59 -24 62 -32 3 -9 1 -42 -6 -73 -15 -73 -60 -415 -60 -466 -1
-22 -7 -64 -13 -93 -14 -60 -9 -55 -158 -163 -143 -104 -225 -167 -309 -236
-42 -35 -83 -63 -91 -63 -16 0 -253 237 -330 330 -144 173 -229 320 -276 474
-35 115 -35 190 1 259 15 31 38 65 49 77 32 29 139 79 188 86 24 4 50 10 58
15 22 12 307 10 360 -2z m3063 0 c176 -26 275 -82 326 -184 41 -82 20 -218
-58 -385 -17 -36 -36 -74 -43 -85 -7 -11 -28 -44 -47 -75 -18 -30 -54 -82 -80
-114 -96 -123 -362 -396 -386 -396 -7 0 -48 30 -91 66 -76 63 -236 184 -378
288 -37 26 -72 60 -77 74 -5 14 -14 71 -19 126 -5 56 -12 112 -15 126 -3 14
-12 81 -20 150 -15 127 -18 144 -28 170 -10 28 -15 87 -8 98 14 24 399 111
636 145 62 8 219 7 288 -4z m-2283 -199 c33 -16 240 -99 305 -122 82 -28 155
-64 155 -74 0 -7 -17 -18 -37 -25 -21 -7 -51 -20 -68 -30 -16 -11 -59 -34 -95
-52 -96 -50 -182 -98 -211 -118 -44 -31 -200 -119 -210 -119 -6 0 -7 14 -4 33
3 17 7 59 10 92 5 63 14 124 40 265 9 47 17 102 19 122 7 64 17 67 96 28z
m1256 0 c2 -8 16 -103 32 -210 34 -221 45 -330 36 -330 -9 0 -57 27 -170 97
-56 34 -179 103 -273 154 -139 74 -170 94 -159 104 7 7 56 29 108 49 52 20
115 45 140 56 257 106 280 112 286 80z m-623 -280 c15 -5 44 -19 65 -32 64
-40 94 -56 206 -114 119 -61 389 -225 421 -255 19 -19 20 -35 23 -372 2 -193
1 -385 -3 -424 l-7 -73 -131 -88 c-73 -49 -170 -109 -217 -134 -47 -24 -103
-55 -125 -68 -86 -51 -195 -108 -236 -124 -40 -16 -45 -16 -88 0 -50 19 -146
69 -235 122 -32 19 -79 46 -105 60 -25 13 -60 31 -77 41 -17 9 -92 56 -167
105 l-136 89 -6 71 c-4 39 -5 228 -3 420 l3 348 38 33 c21 18 74 55 119 81
173 105 224 134 248 144 48 21 125 63 210 114 95 58 138 76 160 69 8 -3 28 -9
43 -13z m-924 -819 c1 -181 3 -336 7 -345 10 -27 -18 -18 -69 22 -27 20 -70
53 -97 72 -102 74 -280 212 -287 222 -3 7 9 24 28 41 78 66 217 177 223 177 3
0 47 32 98 70 51 39 93 70 95 70 1 0 2 -148 2 -329z m1785 307 c8 -7 48 -38
91 -68 42 -30 111 -82 154 -115 72 -58 88 -71 149 -121 l26 -21 -38 -34 c-22
-19 -62 -51 -90 -72 -28 -20 -69 -52 -91 -70 -21 -17 -57 -44 -80 -58 -22 -14
-62 -45 -90 -67 -27 -23 -54 -42 -60 -42 -7 0 -11 109 -10 340 0 352 1 364 39
328z m-2248 -458 c23 -19 63 -52 90 -73 27 -21 78 -61 114 -88 36 -28 99 -74
140 -102 136 -91 127 -80 139 -171 6 -44 15 -137 21 -206 6 -69 15 -147 21
-175 5 -27 11 -63 13 -80 2 -16 9 -59 16 -94 16 -79 17 -78 -111 -110 -52 -12
-123 -31 -159 -42 -111 -33 -129 -31 -162 17 -39 59 -124 98 -194 91 -86 -9
-147 -53 -181 -128 -20 -46 -29 -47 -164 -25 -133 22 -244 88 -276 165 -24 58
-28 177 -8 246 31 111 108 253 204 380 76 99 242 285 336 373 96 92 82 90 161
22z m2929 -111 c28 -30 76 -84 109 -121 l58 -68 -17 -37 c-70 -148 31 -303
198 -303 l52 0 22 -57 c46 -120 53 -236 19 -318 -28 -66 -136 -142 -236 -165
-88 -20 -288 -23 -448 -6 -151 16 -464 86 -541 121 -30 14 -33 19 -28 48 29
168 63 430 73 563 3 44 9 85 12 91 4 6 48 39 97 73 108 75 258 190 368 282
l80 67 66 -58 c36 -32 89 -83 116 -112z m-2228 -398 c34 -22 64 -41 67 -41 2
0 48 -25 101 -55 54 -30 100 -55 102 -55 3 0 17 -8 31 -18 15 -11 69 -41 120
-68 50 -26 92 -52 92 -57 0 -4 -8 -10 -17 -14 -10 -3 -67 -28 -128 -55 -100
-45 -184 -78 -334 -129 -30 -11 -57 -19 -60 -19 -11 0 -30 100 -51 265 -26
205 -28 223 -35 267 -9 50 1 65 29 40 11 -10 49 -38 83 -61z m1379 -8 c-4 -43
-11 -103 -16 -133 -5 -30 -17 -109 -25 -175 -17 -128 -32 -195 -42 -195 -20 0
-266 97 -418 164 -27 12 -65 28 -82 35 -18 8 -33 17 -33 22 0 5 24 20 53 33
111 54 453 250 514 296 21 16 42 29 47 29 4 1 5 -34 2 -76z m-680 -377 c32
-13 109 -46 170 -75 61 -28 115 -51 121 -51 5 0 29 -10 54 -22 24 -11 86 -36
138 -55 52 -18 96 -34 97 -36 2 -2 -13 -66 -32 -143 -20 -76 -39 -149 -41
-162 -3 -12 -9 -25 -14 -28 -5 -3 -9 -13 -9 -23 0 -22 -89 -250 -125 -322
-124 -243 -277 -383 -420 -383 -108 0 -230 81 -325 214 -68 96 -202 380 -230
488 -5 20 -21 78 -35 127 -24 83 -55 212 -55 226 0 4 42 21 93 40 50 18 120
45 154 61 34 15 66 28 71 28 6 0 63 25 126 55 98 47 173 79 197 84 3 0 32 -10
65 -23z"/>
<path d="M2269 3139 c-357 -52 -539 -467 -337 -769 198 -297 648 -286 836 21
57 93 83 237 63 344 -14 75 -67 187 -115 242 -103 118 -289 186 -447 162z m19
-41 c10 -9 4 -16 -26 -33 -22 -12 -56 -25 -76 -29 -21 -4 -45 -10 -54 -13 -14
-5 -14 -2 3 17 l20 23 -25 -7 c-14 -4 -37 -21 -52 -37 -15 -16 -35 -29 -43
-29 -9 0 -18 -7 -21 -15 -4 -8 -10 -12 -16 -9 -15 9 39 60 85 80 23 10 51 25
62 35 30 26 119 36 143 17z m293 -34 c103 -61 208 -195 209 -266 0 -15 5 -30
10 -33 12 -7 14 -55 2 -55 -4 0 -16 11 -26 25 -21 27 -32 32 -34 13 0 -7 -4
-32 -8 -55 -4 -29 -2 -48 6 -58 16 -20 -4 -20 -23 0 -9 8 -20 30 -27 49 -12
37 -31 47 -97 51 -24 1 -50 8 -58 15 -8 7 -15 8 -15 2 0 -14 28 -35 39 -28 16
10 41 -5 41 -24 0 -16 -40 -57 -86 -88 -17 -11 -15 -12 15 -6 29 5 33 4 28
-11 -4 -9 -7 -21 -7 -26 0 -5 -18 -29 -41 -54 -38 -41 -40 -47 -34 -84 6 -35
4 -41 -19 -56 -14 -10 -26 -24 -26 -33 0 -8 -13 -28 -30 -43 -38 -37 -88 -40
-110 -6 -42 65 -52 91 -42 108 8 13 6 26 -9 55 -10 21 -19 48 -19 60 0 25 -24
36 -88 39 -69 4 -99 45 -87 123 5 33 17 52 55 90 30 29 46 52 40 58 -12 12 10
41 35 45 11 3 20 9 20 14 0 6 4 16 8 23 5 7 2 14 -7 18 -9 3 -16 11 -16 16 0
6 7 8 15 4 9 -3 15 0 15 9 0 8 5 15 10 15 6 0 10 -12 10 -26 0 -26 1 -26 24
-10 14 9 27 12 30 7 6 -10 45 -3 47 8 5 38 4 49 -3 45 -4 -3 -8 -11 -8 -18 0
-8 -7 -19 -15 -26 -10 -9 -15 -9 -15 -1 0 6 -7 11 -15 11 -25 0 -17 16 24 44
40 28 88 32 84 8 -2 -6 2 -12 7 -12 6 0 10 4 10 8 0 5 12 14 26 20 14 7 22 17
19 22 -3 6 -2 10 4 10 6 0 8 7 5 15 -4 10 0 15 11 15 9 0 13 5 10 10 -12 19
46 -1 106 -36z m-241 6 c0 -5 -5 -10 -11 -10 -5 0 -7 5 -4 10 3 6 8 10 11 10
2 0 4 -4 4 -10z m77 -22 c-3 -8 -6 -5 -6 6 -1 11 2 17 5 13 3 -3 4 -12 1 -19z
m-202 -28 c3 -5 -1 -10 -10 -10 -9 0 -13 5 -10 10 3 6 8 10 10 10 2 0 7 -4 10
-10z m-175 -44 c0 -3 -4 -8 -10 -11 -5 -3 -10 -1 -10 4 0 6 5 11 10 11 6 0 10
-2 10 -4z m-161 -340 c1 -17 13 -48 29 -70 21 -31 27 -51 28 -98 1 -32 -2 -58
-6 -58 -12 0 -50 95 -60 151 -13 66 -12 153 0 124 5 -11 9 -33 9 -49z m938
-13 l1 -38 -13 30 c-7 17 -9 31 -4 33 5 2 6 9 3 14 -4 6 -3 8 3 5 5 -3 10 -23
10 -44z m-267 -213 c0 -5 -8 -25 -17 -45 -20 -42 -49 -49 -39 -10 10 38 56 84
56 55z"/>
<path d="M2187 3084 c-16 -9 -27 -18 -24 -21 6 -5 67 24 67 32 0 8 -14 5 -43
-11z"/>
<path d="M2480 2880 c0 -15 31 -60 40 -60 5 0 6 9 3 20 -3 11 -9 20 -14 20 -5
0 -9 7 -9 15 0 8 -4 15 -10 15 -5 0 -10 -5 -10 -10z"/>
<path d="M2376 2864 c-3 -8 -6 -17 -6 -19 0 -2 16 -3 35 -2 40 1 41 3 20 23
-10 10 -15 11 -15 3 0 -9 -3 -9 -14 0 -11 9 -15 8 -20 -5z"/>
<path d="M2280 2863 c0 -5 5 -14 12 -21 10 -9 8 -16 -5 -29 -11 -11 -17 -13
-17 -5 0 7 5 12 12 12 6 0 3 9 -7 20 -24 26 -44 25 -79 -5 l-29 -25 41 0 c30
0 42 -4 42 -15 0 -8 14 -21 30 -30 17 -9 30 -11 30 -6 0 6 23 9 52 8 40 -1 53
2 55 13 2 10 -4 16 -18 17 -12 1 -30 10 -40 19 -11 10 -19 12 -19 6 0 -21 -20
-13 -30 12 -9 24 -30 44 -30 29z"/>
<path d="M2420 2722 c0 -16 63 -107 67 -96 2 7 -10 32 -27 58 -31 45 -40 54
-40 38z"/>
</g>
</svg>
